<?xml version="1.0" encoding="UTF-8"?>
<svg xmlns="http://www.w3.org/2000/svg" xmlns:xlink="http://www.w3.org/1999/xlink" width="200px" height="200px" viewBox="0 0 200 200" version="1.1">
<defs>
<filter id="alpha" filterUnits="objectBoundingBox" x="0%" y="0%" width="100%" height="100%">
  <feColorMatrix type="matrix" in="SourceGraphic" values="0 0 0 0 1 0 0 0 0 1 0 0 0 0 1 0 0 0 1 0"/>
</filter>
<mask id="mask0">
  <g filter="url(#alpha)">
<rect x="0" y="0" width="200" height="200" style="fill:rgb(0%,0%,0%);fill-opacity:0.6;stroke:none;"/>
  </g>
</mask>
<clipPath id="clip1">
  <rect x="0" y="0" width="200" height="200"/>
</clipPath>
<g id="surface5" clip-path="url(#clip1)">
<path style=" stroke:none;fill-rule:nonzero;fill:rgb(7.450981%,81.960785%,72.941178%);fill-opacity:1;" d="M 71.289062 95.484375 C 71.289062 91.207031 67.824219 87.742188 63.546875 87.742188 C 59.273438 87.742188 55.804688 91.207031 55.804688 95.484375 C 55.804688 99.757812 59.273438 103.226562 63.546875 103.226562 C 67.824219 103.226562 71.289062 99.757812 71.289062 95.484375 Z M 71.289062 95.484375 "/>
<path style=" stroke:none;fill-rule:nonzero;fill:rgb(5.882353%,66.666669%,65.098041%);fill-opacity:1;" d="M 58.386719 100.96875 C 55.484375 98.066406 55.484375 93.226562 58.386719 90 C 61.289062 87.097656 66.128906 87.097656 69.355469 90 "/>
</g>
<mask id="mask1">
  <g filter="url(#alpha)">
<rect x="0" y="0" width="200" height="200" style="fill:rgb(0%,0%,0%);fill-opacity:0.6;stroke:none;"/>
  </g>
</mask>
<clipPath id="clip2">
  <rect x="0" y="0" width="200" height="200"/>
</clipPath>
<g id="surface8" clip-path="url(#clip2)">
<path style=" stroke:none;fill-rule:nonzero;fill:rgb(7.450981%,81.960785%,72.941178%);fill-opacity:1;" d="M 58.386719 100.96875 C 55.484375 98.066406 55.484375 93.226562 58.386719 90 C 61.289062 87.097656 66.128906 87.097656 69.355469 90 C 72.257812 92.902344 72.257812 97.742188 69.355469 100.96875 C 66.128906 103.871094 61.289062 103.871094 58.386719 100.96875 Z M 58.386719 100.96875 "/>
<path style=" stroke:none;fill-rule:nonzero;fill:rgb(5.882353%,66.666669%,65.098041%);fill-opacity:1;" d="M 69.03125 100.96875 C 66.128906 103.871094 61.289062 103.871094 58.066406 100.96875 C 55.160156 98.066406 55.160156 93.226562 58.066406 90 "/>
</g>
<mask id="mask2">
  <g filter="url(#alpha)">
<rect x="0" y="0" width="200" height="200" style="fill:rgb(0%,0%,0%);fill-opacity:0.6;stroke:none;"/>
  </g>
</mask>
<clipPath id="clip3">
  <rect x="0" y="0" width="200" height="200"/>
</clipPath>
<g id="surface11" clip-path="url(#clip3)">
<path style=" stroke:none;fill-rule:nonzero;fill:rgb(7.450981%,81.960785%,72.941178%);fill-opacity:1;" d="M 144.195312 95.484375 C 144.195312 91.207031 140.726562 87.742188 136.453125 87.742188 C 132.175781 87.742188 128.710938 91.207031 128.710938 95.484375 C 128.710938 99.757812 132.175781 103.226562 136.453125 103.226562 C 140.726562 103.226562 144.195312 99.757812 144.195312 95.484375 Z M 144.195312 95.484375 "/>
<path style=" stroke:none;fill-rule:nonzero;fill:rgb(5.882353%,66.666669%,65.098041%);fill-opacity:1;" d="M 141.613281 100.96875 C 144.515625 98.066406 144.515625 93.226562 141.613281 90 C 138.710938 87.097656 133.871094 87.097656 130.644531 90 "/>
</g>
<mask id="mask3">
  <g filter="url(#alpha)">
<rect x="0" y="0" width="200" height="200" style="fill:rgb(0%,0%,0%);fill-opacity:0.6;stroke:none;"/>
  </g>
</mask>
<clipPath id="clip4">
  <rect x="0" y="0" width="200" height="200"/>
</clipPath>
<g id="surface14" clip-path="url(#clip4)">
<path style=" stroke:none;fill-rule:nonzero;fill:rgb(7.450981%,81.960785%,72.941178%);fill-opacity:1;" d="M 141.613281 100.96875 C 144.515625 98.066406 144.515625 93.226562 141.613281 90 C 138.710938 87.097656 133.871094 87.097656 130.644531 90 C 127.742188 92.902344 127.742188 97.742188 130.644531 100.96875 C 133.871094 103.871094 138.710938 103.871094 141.613281 100.96875 Z M 141.613281 100.96875 "/>
<path style=" stroke:none;fill-rule:nonzero;fill:rgb(5.882353%,66.666669%,65.098041%);fill-opacity:1;" d="M 130.96875 100.96875 C 133.871094 103.871094 138.710938 103.871094 141.933594 100.96875 C 144.839844 98.066406 144.839844 93.226562 141.933594 90 "/>
</g>
</defs>
<g id="surface1">
<path style=" stroke:none;fill-rule:nonzero;fill:rgb(4.705882%,52.549022%,73.725492%);fill-opacity:1;" d="M 192.257812 104.195312 C 192.257812 53.242188 150.953125 11.933594 100 11.933594 C 49.046875 11.933594 7.742188 53.242188 7.742188 104.195312 C 7.742188 155.144531 49.046875 196.453125 100 196.453125 C 150.953125 196.453125 192.257812 155.144531 192.257812 104.195312 Z M 192.257812 104.195312 "/>
<path style=" stroke:none;fill-rule:nonzero;fill:rgb(3.137255%,42.745098%,62.7451%);fill-opacity:1;" d="M 100 11.933594 C 150.96875 11.933594 192.257812 53.226562 192.257812 104.195312 C 192.257812 155.160156 150.96875 196.453125 100 196.453125 "/>
<path style=" stroke:none;fill-rule:nonzero;fill:rgb(38.431373%,57.647061%,62.7451%);fill-opacity:1;" d="M 141.613281 176.128906 C 141.613281 184.839844 134.515625 191.933594 125.804688 191.933594 L 73.871094 191.933594 C 65.160156 191.933594 58.066406 184.839844 58.066406 176.128906 C 58.066406 167.417969 65.160156 160.324219 73.871094 160.324219 L 125.804688 160.324219 C 134.839844 160.644531 141.613281 167.417969 141.613281 176.128906 Z M 141.613281 176.128906 "/>
<path style=" stroke:none;fill-rule:nonzero;fill:rgb(74.117649%,83.529413%,85.882354%);fill-opacity:1;" d="M 196.773438 200 C 195.484375 183.871094 181.933594 170.96875 165.160156 170.96875 L 34.839844 170.96875 C 18.066406 170.96875 4.515625 183.871094 3.226562 200 Z M 196.773438 200 "/>
<path style=" stroke:none;fill-rule:nonzero;fill:rgb(52.941179%,71.372551%,75.686276%);fill-opacity:1;" d="M 3.226562 200 L 196.773438 200 C 195.484375 183.871094 181.933594 170.96875 165.160156 170.96875 L 35.484375 170.96875 "/>
<path style=" stroke:none;fill-rule:nonzero;fill:rgb(4.313726%,38.82353%,50.980395%);fill-opacity:1;" d="M 119.355469 180 C 119.355469 185.484375 114.195312 190.324219 108.710938 190.324219 L 91.613281 190.324219 C 86.128906 190.324219 80.96875 185.484375 80.96875 180 L 80.96875 68.386719 C 80.96875 62.902344 86.128906 58.066406 91.613281 58.066406 L 108.710938 58.066406 C 114.195312 58.066406 119.355469 62.902344 119.355469 68.386719 Z M 119.355469 180 "/>
<path style=" stroke:none;fill-rule:nonzero;fill:rgb(0%,13.725491%,24.705882%);fill-opacity:1;" d="M 80.644531 68.386719 C 80.644531 62.902344 85.804688 58.066406 91.289062 58.066406 L 108.386719 58.066406 C 113.871094 58.066406 119.03125 62.902344 119.03125 68.386719 L 119.03125 180 C 119.03125 185.484375 113.871094 190.324219 108.386719 190.324219 L 90.324219 190.324219 "/>
<path style=" stroke:none;fill-rule:nonzero;fill:rgb(4.313726%,38.82353%,50.980395%);fill-opacity:1;" d="M 62.902344 84.515625 C 62.902344 72.402344 53.804688 62.582031 42.582031 62.582031 C 31.355469 62.582031 22.257812 72.402344 22.257812 84.515625 C 22.257812 96.628906 31.355469 106.453125 42.582031 106.453125 C 53.804688 106.453125 62.902344 96.628906 62.902344 84.515625 Z M 62.902344 84.515625 "/>
<path style=" stroke:none;fill-rule:nonzero;fill:rgb(0%,13.725491%,24.705882%);fill-opacity:1;" d="M 62.902344 84.515625 C 62.902344 72.402344 54.671875 62.582031 44.515625 62.582031 C 34.359375 62.582031 26.128906 72.402344 26.128906 84.515625 C 26.128906 96.628906 34.359375 106.453125 44.515625 106.453125 C 54.671875 106.453125 62.902344 96.628906 62.902344 84.515625 Z M 62.902344 84.515625 "/>
<path style=" stroke:none;fill-rule:nonzero;fill:rgb(0%,100%,94.901961%);fill-opacity:1;" d="M 32.257812 84.515625 C 32.257812 83.625 31.535156 82.902344 30.644531 82.902344 C 29.753906 82.902344 29.03125 83.625 29.03125 84.515625 C 29.03125 85.40625 29.753906 86.128906 30.644531 86.128906 C 31.535156 86.128906 32.257812 85.40625 32.257812 84.515625 Z M 32.257812 84.515625 "/>
<path style=" stroke:none;fill-rule:nonzero;fill:rgb(52.941179%,71.372551%,75.686276%);fill-opacity:1;" d="M 35.484375 93.871094 L 29.355469 90.324219 L 35.484375 86.773438 Z M 35.484375 93.871094 "/>
<path style=" stroke:none;fill-rule:nonzero;fill:rgb(4.313726%,38.82353%,50.980395%);fill-opacity:1;" d="M 177.742188 84.515625 C 177.742188 72.402344 168.644531 62.582031 157.417969 62.582031 C 146.195312 62.582031 137.097656 72.402344 137.097656 84.515625 C 137.097656 96.628906 146.195312 106.453125 157.417969 106.453125 C 168.644531 106.453125 177.742188 96.628906 177.742188 84.515625 Z M 177.742188 84.515625 "/>
<path style=" stroke:none;fill-rule:nonzero;fill:rgb(0%,13.725491%,24.705882%);fill-opacity:1;" d="M 173.871094 84.515625 C 173.871094 72.402344 165.640625 62.582031 155.484375 62.582031 C 145.328125 62.582031 137.097656 72.402344 137.097656 84.515625 C 137.097656 96.628906 145.328125 106.453125 155.484375 106.453125 C 165.640625 106.453125 173.871094 96.628906 173.871094 84.515625 Z M 173.871094 84.515625 "/>
<path style=" stroke:none;fill-rule:nonzero;fill:rgb(0%,100%,94.901961%);fill-opacity:1;" d="M 170.96875 84.515625 C 170.96875 83.625 170.246094 82.902344 169.355469 82.902344 C 168.464844 82.902344 167.742188 83.625 167.742188 84.515625 C 167.742188 85.40625 168.464844 86.128906 169.355469 86.128906 C 170.246094 86.128906 170.96875 85.40625 170.96875 84.515625 Z M 170.96875 84.515625 "/>
<path style=" stroke:none;fill-rule:nonzero;fill:rgb(52.941179%,71.372551%,75.686276%);fill-opacity:1;" d="M 164.515625 93.871094 L 170.644531 90.324219 L 164.515625 86.773438 Z M 164.515625 93.871094 "/>
<path style=" stroke:none;fill-rule:nonzero;fill:rgb(74.117649%,83.529413%,85.882354%);fill-opacity:1;" d="M 164.515625 122.582031 C 164.515625 141.289062 159.675781 154.839844 141.289062 154.839844 L 61.613281 154.839844 C 42.902344 154.839844 35.484375 141.289062 35.484375 122.582031 L 35.484375 33.546875 C 35.484375 14.839844 51.289062 0 69.675781 0 L 130.324219 0 C 148.710938 0 164.515625 14.839844 164.515625 33.546875 Z M 164.515625 122.582031 "/>
<path style=" stroke:none;fill-rule:nonzero;fill:rgb(52.941179%,71.372551%,75.686276%);fill-opacity:1;" d="M 70.96875 0 L 130.324219 0 C 148.710938 0 164.515625 14.839844 164.515625 33.546875 L 164.515625 122.582031 C 164.515625 141.289062 159.675781 154.839844 141.289062 154.839844 L 61.289062 154.839844 "/>
<path style=" stroke:none;fill-rule:nonzero;fill:rgb(38.431373%,57.647061%,62.7451%);fill-opacity:1;" d="M 130.644531 0 C 149.03125 0 164.515625 14.839844 164.515625 33.546875 L 164.515625 122.582031 C 164.515625 141.289062 159.675781 154.839844 141.289062 154.839844 "/>
<path style=" stroke:none;fill-rule:nonzero;fill:rgb(38.431373%,57.647061%,62.7451%);fill-opacity:1;" d="M 80.96875 99.355469 C 80.96875 89.734375 73.167969 81.933594 63.546875 81.933594 C 53.929688 81.933594 46.128906 89.734375 46.128906 99.355469 C 46.128906 108.976562 53.929688 116.773438 63.546875 116.773438 C 73.167969 116.773438 80.96875 108.976562 80.96875 99.355469 Z M 80.96875 99.355469 "/>
<path style=" stroke:none;fill-rule:nonzero;fill:rgb(4.313726%,38.82353%,50.980395%);fill-opacity:1;" d="M 80.96875 95.484375 C 80.96875 85.863281 73.167969 78.066406 63.546875 78.066406 C 53.929688 78.066406 46.128906 85.863281 46.128906 95.484375 C 46.128906 105.105469 53.929688 112.902344 63.546875 112.902344 C 73.167969 112.902344 80.96875 105.105469 80.96875 95.484375 Z M 80.96875 95.484375 "/>
<path style=" stroke:none;fill-rule:nonzero;fill:rgb(0%,13.725491%,24.705882%);fill-opacity:1;" d="M 51.613281 83.226562 C 58.386719 76.453125 69.355469 76.453125 76.128906 83.226562 C 82.902344 90 82.902344 100.96875 76.128906 107.742188 "/>
<path style=" stroke:none;fill-rule:nonzero;fill:rgb(7.450981%,81.960785%,72.941178%);fill-opacity:1;" d="M 75.484375 95.484375 C 75.484375 88.890625 70.140625 83.546875 63.546875 83.546875 C 56.957031 83.546875 51.613281 88.890625 51.613281 95.484375 C 51.613281 102.074219 56.957031 107.417969 63.546875 107.417969 C 70.140625 107.417969 75.484375 102.074219 75.484375 95.484375 Z M 75.484375 95.484375 "/>
<path style=" stroke:none;fill-rule:nonzero;fill:rgb(5.882353%,66.666669%,65.098041%);fill-opacity:1;" d="M 63.546875 83.546875 C 70 83.546875 75.484375 89.03125 75.484375 95.484375 C 75.484375 101.933594 70 107.417969 63.546875 107.417969 "/>
<use xlink:href="#surface5" mask="url(#mask0)"/>
<use xlink:href="#surface8" mask="url(#mask1)"/>
<path style=" stroke:none;fill-rule:nonzero;fill:rgb(94.117647%,100%,99.215686%);fill-opacity:1;" d="M 63.226562 92.257812 C 63.226562 90.832031 62.070312 89.675781 60.644531 89.675781 C 59.21875 89.675781 58.066406 90.832031 58.066406 92.257812 C 58.066406 93.683594 59.21875 94.839844 60.644531 94.839844 C 62.070312 94.839844 63.226562 93.683594 63.226562 92.257812 Z M 63.226562 92.257812 "/>
<path style=" stroke:none;fill-rule:nonzero;fill:rgb(94.117647%,100%,99.215686%);fill-opacity:1;" d="M 66.128906 97.097656 C 66.128906 96.917969 65.984375 96.773438 65.804688 96.773438 C 65.628906 96.773438 65.484375 96.917969 65.484375 97.097656 C 65.484375 97.273438 65.628906 97.417969 65.804688 97.417969 C 65.984375 97.417969 66.128906 97.273438 66.128906 97.097656 Z M 66.128906 97.097656 "/>
<path style=" stroke:none;fill-rule:nonzero;fill:rgb(94.117647%,100%,99.215686%);fill-opacity:1;" d="M 69.03125 99.675781 C 69.03125 99.144531 68.597656 98.710938 68.066406 98.710938 C 67.53125 98.710938 67.097656 99.144531 67.097656 99.675781 C 67.097656 100.210938 67.53125 100.644531 68.066406 100.644531 C 68.597656 100.644531 69.03125 100.210938 69.03125 99.675781 Z M 69.03125 99.675781 "/>
<path style=" stroke:none;fill-rule:nonzero;fill:rgb(94.901961%,95.686275%,86.274511%);fill-opacity:1;" d="M 61.933594 81.289062 C 61.933594 81.113281 61.792969 80.96875 61.613281 80.96875 C 61.433594 80.96875 61.289062 81.113281 61.289062 81.289062 C 61.289062 81.46875 61.433594 81.613281 61.613281 81.613281 C 61.792969 81.613281 61.933594 81.46875 61.933594 81.289062 Z M 61.933594 81.289062 "/>
<path style=" stroke:none;fill-rule:nonzero;fill:rgb(94.901961%,95.686275%,86.274511%);fill-opacity:1;" d="M 63.871094 81.289062 C 63.871094 81.113281 63.726562 80.96875 63.546875 80.96875 C 63.371094 80.96875 63.226562 81.113281 63.226562 81.289062 C 63.226562 81.46875 63.371094 81.613281 63.546875 81.613281 C 63.726562 81.613281 63.871094 81.46875 63.871094 81.289062 Z M 63.871094 81.289062 "/>
<path style=" stroke:none;fill-rule:nonzero;fill:rgb(94.901961%,95.686275%,86.274511%);fill-opacity:1;" d="M 66.128906 81.289062 C 66.128906 81.113281 65.984375 80.96875 65.804688 80.96875 C 65.628906 80.96875 65.484375 81.113281 65.484375 81.289062 C 65.484375 81.46875 65.628906 81.613281 65.804688 81.613281 C 65.984375 81.613281 66.128906 81.46875 66.128906 81.289062 Z M 66.128906 81.289062 "/>
<path style=" stroke:none;fill-rule:nonzero;fill:rgb(94.901961%,95.686275%,86.274511%);fill-opacity:1;" d="M 61.933594 110.96875 C 61.933594 110.789062 61.792969 110.644531 61.613281 110.644531 C 61.433594 110.644531 61.289062 110.789062 61.289062 110.96875 C 61.289062 111.144531 61.433594 111.289062 61.613281 111.289062 C 61.792969 111.289062 61.933594 111.144531 61.933594 110.96875 Z M 61.933594 110.96875 "/>
<path style=" stroke:none;fill-rule:nonzero;fill:rgb(94.901961%,95.686275%,86.274511%);fill-opacity:1;" d="M 63.871094 110.96875 C 63.871094 110.789062 63.726562 110.644531 63.546875 110.644531 C 63.371094 110.644531 63.226562 110.789062 63.226562 110.96875 C 63.226562 111.144531 63.371094 111.289062 63.546875 111.289062 C 63.726562 111.289062 63.871094 111.144531 63.871094 110.96875 Z M 63.871094 110.96875 "/>
<path style=" stroke:none;fill-rule:nonzero;fill:rgb(94.901961%,95.686275%,86.274511%);fill-opacity:1;" d="M 66.128906 110.96875 C 66.128906 110.789062 65.984375 110.644531 65.804688 110.644531 C 65.628906 110.644531 65.484375 110.789062 65.484375 110.96875 C 65.484375 111.144531 65.628906 111.289062 65.804688 111.289062 C 65.984375 111.289062 66.128906 111.144531 66.128906 110.96875 Z M 66.128906 110.96875 "/>
<path style=" stroke:none;fill-rule:nonzero;fill:rgb(38.431373%,57.647061%,62.7451%);fill-opacity:1;" d="M 77.417969 59.355469 L 62.902344 70 L 48.386719 59.355469 L 48.386719 51.289062 L 77.417969 57.097656 Z M 77.417969 59.355469 "/>
<path style=" stroke:none;fill-rule:nonzero;fill:rgb(4.313726%,38.82353%,50.980395%);fill-opacity:1;" d="M 77.417969 58.066406 L 48.386719 58.066406 L 48.386719 50.644531 L 77.417969 57.097656 Z M 77.417969 58.066406 "/>
<path style=" stroke:none;fill-rule:nonzero;fill:rgb(0%,13.725491%,24.705882%);fill-opacity:1;" d="M 48.386719 50.644531 L 77.417969 57.097656 L 77.417969 58.066406 L 64.515625 58.066406 "/>
<path style=" stroke:none;fill-rule:nonzero;fill:rgb(74.117649%,83.529413%,85.882354%);fill-opacity:1;" d="M 153.871094 99.355469 C 153.871094 89.734375 146.070312 81.933594 136.453125 81.933594 C 126.832031 81.933594 119.03125 89.734375 119.03125 99.355469 C 119.03125 108.976562 126.832031 116.773438 136.453125 116.773438 C 146.070312 116.773438 153.871094 108.976562 153.871094 99.355469 Z M 153.871094 99.355469 "/>
<path style=" stroke:none;fill-rule:nonzero;fill:rgb(4.313726%,38.82353%,50.980395%);fill-opacity:1;" d="M 153.871094 95.484375 C 153.871094 85.863281 146.070312 78.066406 136.453125 78.066406 C 126.832031 78.066406 119.03125 85.863281 119.03125 95.484375 C 119.03125 105.105469 126.832031 112.902344 136.453125 112.902344 C 146.070312 112.902344 153.871094 105.105469 153.871094 95.484375 Z M 153.871094 95.484375 "/>
<path style=" stroke:none;fill-rule:nonzero;fill:rgb(0%,13.725491%,24.705882%);fill-opacity:1;" d="M 148.386719 83.226562 C 141.613281 76.453125 130.644531 76.453125 123.871094 83.226562 C 117.097656 90 117.097656 100.96875 123.871094 107.742188 "/>
<path style=" stroke:none;fill-rule:nonzero;fill:rgb(7.450981%,81.960785%,72.941178%);fill-opacity:1;" d="M 148.386719 95.484375 C 148.386719 88.890625 143.042969 83.546875 136.453125 83.546875 C 129.859375 83.546875 124.515625 88.890625 124.515625 95.484375 C 124.515625 102.074219 129.859375 107.417969 136.453125 107.417969 C 143.042969 107.417969 148.386719 102.074219 148.386719 95.484375 Z M 148.386719 95.484375 "/>
<path style=" stroke:none;fill-rule:nonzero;fill:rgb(5.882353%,66.666669%,65.098041%);fill-opacity:1;" d="M 136.453125 83.546875 C 130 83.546875 124.515625 89.03125 124.515625 95.484375 C 124.515625 101.933594 130 107.417969 136.453125 107.417969 "/>
<use xlink:href="#surface11" mask="url(#mask2)"/>
<use xlink:href="#surface14" mask="url(#mask3)"/>
<path style=" stroke:none;fill-rule:nonzero;fill:rgb(94.117647%,100%,99.215686%);fill-opacity:1;" d="M 141.933594 92.257812 C 141.933594 90.832031 140.78125 89.675781 139.355469 89.675781 C 137.929688 89.675781 136.773438 90.832031 136.773438 92.257812 C 136.773438 93.683594 137.929688 94.839844 139.355469 94.839844 C 140.78125 94.839844 141.933594 93.683594 141.933594 92.257812 Z M 141.933594 92.257812 "/>
<path style=" stroke:none;fill-rule:nonzero;fill:rgb(94.117647%,100%,99.215686%);fill-opacity:1;" d="M 134.515625 97.097656 C 134.515625 96.917969 134.371094 96.773438 134.195312 96.773438 C 134.015625 96.773438 133.871094 96.917969 133.871094 97.097656 C 133.871094 97.273438 134.015625 97.417969 134.195312 97.417969 C 134.371094 97.417969 134.515625 97.273438 134.515625 97.097656 Z M 134.515625 97.097656 "/>
<path style=" stroke:none;fill-rule:nonzero;fill:rgb(94.117647%,100%,99.215686%);fill-opacity:1;" d="M 132.902344 99.675781 C 132.902344 99.144531 132.46875 98.710938 131.933594 98.710938 C 131.402344 98.710938 130.96875 99.144531 130.96875 99.675781 C 130.96875 100.210938 131.402344 100.644531 131.933594 100.644531 C 132.46875 100.644531 132.902344 100.210938 132.902344 99.675781 Z M 132.902344 99.675781 "/>
<path style=" stroke:none;fill-rule:nonzero;fill:rgb(94.901961%,95.686275%,86.274511%);fill-opacity:1;" d="M 138.710938 81.289062 C 138.710938 81.113281 138.566406 80.96875 138.386719 80.96875 C 138.207031 80.96875 138.066406 81.113281 138.066406 81.289062 C 138.066406 81.46875 138.207031 81.613281 138.386719 81.613281 C 138.566406 81.613281 138.710938 81.46875 138.710938 81.289062 Z M 138.710938 81.289062 "/>
<path style=" stroke:none;fill-rule:nonzero;fill:rgb(94.901961%,95.686275%,86.274511%);fill-opacity:1;" d="M 136.773438 81.289062 C 136.773438 81.113281 136.628906 80.96875 136.453125 80.96875 C 136.273438 80.96875 136.128906 81.113281 136.128906 81.289062 C 136.128906 81.46875 136.273438 81.613281 136.453125 81.613281 C 136.628906 81.613281 136.773438 81.46875 136.773438 81.289062 Z M 136.773438 81.289062 "/>
<path style=" stroke:none;fill-rule:nonzero;fill:rgb(94.901961%,95.686275%,86.274511%);fill-opacity:1;" d="M 134.515625 81.289062 C 134.515625 81.113281 134.371094 80.96875 134.195312 80.96875 C 134.015625 80.96875 133.871094 81.113281 133.871094 81.289062 C 133.871094 81.46875 134.015625 81.613281 134.195312 81.613281 C 134.371094 81.613281 134.515625 81.46875 134.515625 81.289062 Z M 134.515625 81.289062 "/>
<path style=" stroke:none;fill-rule:nonzero;fill:rgb(94.901961%,95.686275%,86.274511%);fill-opacity:1;" d="M 138.710938 110.96875 C 138.710938 110.789062 138.566406 110.644531 138.386719 110.644531 C 138.207031 110.644531 138.066406 110.789062 138.066406 110.96875 C 138.066406 111.144531 138.207031 111.289062 138.386719 111.289062 C 138.566406 111.289062 138.710938 111.144531 138.710938 110.96875 Z M 138.710938 110.96875 "/>
<path style=" stroke:none;fill-rule:nonzero;fill:rgb(94.901961%,95.686275%,86.274511%);fill-opacity:1;" d="M 136.773438 110.96875 C 136.773438 110.789062 136.628906 110.644531 136.453125 110.644531 C 136.273438 110.644531 136.128906 110.789062 136.128906 110.96875 C 136.128906 111.144531 136.273438 111.289062 136.453125 111.289062 C 136.628906 111.289062 136.773438 111.144531 136.773438 110.96875 Z M 136.773438 110.96875 "/>
<path style=" stroke:none;fill-rule:nonzero;fill:rgb(94.901961%,95.686275%,86.274511%);fill-opacity:1;" d="M 134.515625 110.96875 C 134.515625 110.789062 134.371094 110.644531 134.195312 110.644531 C 134.015625 110.644531 133.871094 110.789062 133.871094 110.96875 C 133.871094 111.144531 134.015625 111.289062 134.195312 111.289062 C 134.371094 111.289062 134.515625 111.144531 134.515625 110.96875 Z M 134.515625 110.96875 "/>
<path style=" stroke:none;fill-rule:nonzero;fill:rgb(38.431373%,57.647061%,62.7451%);fill-opacity:1;" d="M 122.582031 59.355469 L 137.097656 70 L 151.613281 59.355469 L 151.613281 51.289062 L 122.582031 57.097656 Z M 122.582031 59.355469 "/>
<path style=" stroke:none;fill-rule:nonzero;fill:rgb(4.313726%,38.82353%,50.980395%);fill-opacity:1;" d="M 122.582031 58.066406 L 151.613281 58.066406 L 151.613281 50.644531 L 122.582031 57.097656 Z M 122.582031 58.066406 "/>
<path style=" stroke:none;fill-rule:nonzero;fill:rgb(0%,13.725491%,24.705882%);fill-opacity:1;" d="M 151.613281 50.644531 L 122.582031 57.097656 L 122.582031 58.066406 L 135.484375 58.066406 "/>
<path style=" stroke:none;fill-rule:nonzero;fill:rgb(38.431373%,57.647061%,62.7451%);fill-opacity:1;" d="M 115.484375 129.03125 C 115.484375 132.582031 112.582031 135.484375 109.03125 138.710938 L 90.644531 138.710938 C 87.097656 135.484375 84.195312 132.582031 84.195312 129.03125 C 84.195312 125.484375 87.097656 122.582031 90.644531 119.355469 L 109.03125 119.355469 C 112.582031 122.582031 115.484375 125.484375 115.484375 129.03125 Z M 115.484375 129.03125 "/>
<path style=" stroke:none;fill-rule:nonzero;fill:rgb(0%,100%,94.901961%);fill-opacity:1;" d="M 116.128906 129.03125 C 116.128906 132.582031 113.226562 135.484375 109.675781 135.484375 L 90.324219 135.484375 C 86.773438 135.484375 83.871094 132.582031 83.871094 129.03125 C 83.871094 125.484375 86.773438 122.582031 90.324219 122.582031 L 109.675781 122.582031 C 113.226562 122.582031 116.128906 125.484375 116.128906 129.03125 Z M 116.128906 129.03125 "/>
<path style=" stroke:none;fill-rule:nonzero;fill:rgb(0%,100%,94.901961%);fill-opacity:1;" d="M 96.773438 35.484375 L 103.226562 35.484375 L 103.226562 41.933594 L 96.773438 41.933594 Z M 96.773438 35.484375 "/>
<path style=" stroke:none;fill-rule:nonzero;fill:rgb(0%,100%,94.901961%);fill-opacity:1;" d="M 103.226562 16.128906 L 103.226562 9.03125 C 103.226562 7.742188 101.289062 6.773438 100 6.773438 C 98.710938 6.773438 96.773438 7.742188 96.773438 9.03125 L 96.773438 16.128906 Z M 103.226562 16.128906 "/>
<path style=" stroke:none;fill-rule:nonzero;fill:rgb(0%,100%,94.901961%);fill-opacity:1;" d="M 96.773438 22.582031 L 103.226562 22.582031 L 103.226562 29.03125 L 96.773438 29.03125 Z M 96.773438 22.582031 "/>
<path style=" stroke:none;fill-rule:nonzero;fill:rgb(0%,100%,94.901961%);fill-opacity:1;" d="M 96.773438 48.386719 L 103.226562 48.386719 L 103.226562 54.839844 L 96.773438 54.839844 Z M 96.773438 48.386719 "/>
<path style=" stroke:none;fill-rule:nonzero;fill:rgb(0%,84.705883%,86.666667%);fill-opacity:1;" d="M 116.128906 129.03125 C 116.128906 125.804688 114.515625 122.582031 109.675781 122.582031 L 90.324219 122.582031 C 86.128906 122.582031 84.195312 125.804688 83.871094 129.03125 Z M 116.128906 129.03125 "/>
<path style=" stroke:none;fill-rule:nonzero;fill:rgb(74.117649%,83.529413%,85.882354%);fill-opacity:1;" d="M 81.289062 117.742188 C 81.289062 120.644531 79.03125 122.582031 76.128906 122.582031 L 51.933594 122.582031 C 49.03125 122.582031 46.773438 120.644531 46.773438 117.742188 C 46.773438 114.839844 49.03125 112.902344 51.933594 112.902344 L 76.128906 112.902344 C 79.03125 112.902344 81.289062 114.839844 81.289062 117.742188 Z M 81.289062 117.742188 "/>
<path style=" stroke:none;fill-rule:nonzero;fill:rgb(38.431373%,57.647061%,62.7451%);fill-opacity:1;" d="M 153.226562 117.742188 C 153.226562 120.644531 150.96875 122.582031 148.066406 122.582031 L 123.871094 122.582031 C 120.96875 122.582031 118.710938 120.644531 118.710938 117.742188 C 118.710938 114.839844 120.96875 112.902344 123.871094 112.902344 L 148.066406 112.902344 C 150.96875 112.902344 153.226562 114.839844 153.226562 117.742188 Z M 153.226562 117.742188 "/>
<path style=" stroke:none;fill-rule:nonzero;fill:rgb(0%,100%,94.901961%);fill-opacity:1;" d="M 96.773438 58.066406 L 103.226562 58.066406 L 103.226562 70.96875 L 96.773438 70.96875 Z M 96.773438 58.066406 "/>
<path style=" stroke:none;fill-rule:nonzero;fill:rgb(0%,100%,94.901961%);fill-opacity:1;" d="M 96.773438 80.644531 L 96.773438 76.453125 C 96.773438 75.160156 98.710938 74.195312 100 74.195312 C 101.289062 74.195312 103.226562 75.160156 103.226562 76.453125 L 103.226562 80.644531 L 110.644531 80.644531 L 100 68.710938 L 89.355469 80.644531 Z M 96.773438 80.644531 "/>
<path style=" stroke:none;fill-rule:nonzero;fill:rgb(74.117649%,83.529413%,85.882354%);fill-opacity:1;" d="M 75.160156 112.902344 L 99.675781 88.710938 L 80.644531 120 Z M 75.160156 112.902344 "/>
<path style=" stroke:none;fill-rule:nonzero;fill:rgb(38.431373%,57.647061%,62.7451%);fill-opacity:1;" d="M 124.515625 112.902344 L 100.324219 88.710938 L 119.355469 120 Z M 124.515625 112.902344 "/>
<path style=" stroke:none;fill-rule:nonzero;fill:rgb(52.941179%,71.372551%,75.686276%);fill-opacity:1;" d="M 117.742188 162.902344 C 117.742188 163.226562 117.417969 163.546875 117.097656 163.546875 L 82.902344 163.546875 C 82.582031 163.546875 82.257812 163.226562 82.257812 162.902344 C 82.257812 162.582031 82.582031 162.257812 82.902344 162.257812 L 117.097656 162.257812 C 117.417969 161.933594 117.742188 162.257812 117.742188 162.902344 Z M 117.742188 162.902344 "/>
<path style=" stroke:none;fill-rule:nonzero;fill:rgb(52.941179%,71.372551%,75.686276%);fill-opacity:1;" d="M 117.742188 171.613281 C 117.742188 171.933594 117.417969 172.257812 117.097656 172.257812 L 82.902344 172.257812 C 82.582031 172.257812 82.257812 171.933594 82.257812 171.613281 C 82.257812 171.289062 82.582031 170.96875 82.902344 170.96875 L 117.097656 170.96875 C 117.417969 170.96875 117.742188 170.96875 117.742188 171.613281 Z M 117.742188 171.613281 "/>
<path style=" stroke:none;fill-rule:nonzero;fill:rgb(52.941179%,71.372551%,75.686276%);fill-opacity:1;" d="M 117.742188 180.324219 C 117.742188 180.644531 117.417969 180.96875 117.097656 180.96875 L 82.902344 180.96875 C 82.582031 180.96875 82.257812 180.644531 82.257812 180.324219 C 82.257812 180 82.582031 179.675781 82.902344 179.675781 L 117.097656 179.675781 C 117.417969 179.675781 117.742188 179.675781 117.742188 180.324219 Z M 117.742188 180.324219 "/>
<path style=" stroke:none;fill-rule:nonzero;fill:rgb(0%,100%,94.901961%);fill-opacity:1;" d="M 77.742188 179.03125 C 77.742188 180 77.097656 180.644531 76.128906 180.644531 L 50 180.644531 C 49.03125 180.644531 48.386719 180 48.386719 179.03125 C 48.386719 178.066406 49.03125 177.417969 50 177.417969 L 76.128906 177.417969 C 77.097656 177.417969 77.742188 178.066406 77.742188 179.03125 Z M 77.742188 179.03125 "/>
<path style=" stroke:none;fill-rule:nonzero;fill:rgb(0%,100%,94.901961%);fill-opacity:1;" d="M 50.644531 178.066406 C 51.289062 178.710938 51.613281 179.355469 51.289062 179.675781 L 41.933594 189.355469 C 41.613281 189.675781 40.96875 189.355469 40.324219 188.710938 C 39.675781 188.066406 39.355469 187.417969 39.675781 187.097656 L 49.03125 177.742188 C 49.355469 177.417969 50.324219 177.742188 50.644531 178.066406 Z M 50.644531 178.066406 "/>
<path style=" stroke:none;fill-rule:nonzero;fill:rgb(0%,100%,94.901961%);fill-opacity:1;" d="M 39.03125 193.546875 C 39.03125 191.945312 37.734375 190.644531 36.128906 190.644531 C 34.527344 190.644531 33.226562 191.945312 33.226562 193.546875 C 33.226562 195.152344 34.527344 196.453125 36.128906 196.453125 C 37.734375 196.453125 39.03125 195.152344 39.03125 193.546875 Z M 39.03125 193.546875 "/>
<path style=" stroke:none;fill-rule:nonzero;fill:rgb(0%,100%,94.901961%);fill-opacity:1;" d="M 151.613281 179.03125 C 151.613281 178.066406 150.96875 177.417969 150 177.417969 L 124.195312 177.417969 C 123.226562 177.417969 122.582031 178.066406 122.582031 179.03125 C 122.582031 180 123.226562 180.644531 124.195312 180.644531 L 150 180.644531 C 150.96875 180.644531 151.613281 180 151.613281 179.03125 Z M 151.613281 179.03125 "/>
<path style=" stroke:none;fill-rule:nonzero;fill:rgb(0%,100%,94.901961%);fill-opacity:1;" d="M 149.355469 178.066406 C 148.710938 178.710938 148.386719 179.355469 148.710938 179.675781 L 158.066406 189.03125 C 158.386719 189.355469 159.03125 189.03125 159.675781 188.386719 C 160.324219 187.742188 160.644531 187.097656 160.324219 186.773438 L 150.96875 177.417969 C 150.644531 177.417969 149.675781 177.742188 149.355469 178.066406 Z M 149.355469 178.066406 "/>
<path style=" stroke:none;fill-rule:nonzero;fill:rgb(0%,100%,94.901961%);fill-opacity:1;" d="M 166.773438 193.546875 C 166.773438 191.945312 165.472656 190.644531 163.871094 190.644531 C 162.265625 190.644531 160.96875 191.945312 160.96875 193.546875 C 160.96875 195.152344 162.265625 196.453125 163.871094 196.453125 C 165.472656 196.453125 166.773438 195.152344 166.773438 193.546875 Z M 166.773438 193.546875 "/>
</g>
</svg>
